<?xml version="1.0" encoding="utf-8"?>
<!-- Generator: Adobe Illustrator 25.0.0, SVG Export Plug-In . SVG Version: 6.00 Build 0)  -->
<svg version="1.1" id="Layer_1" xmlns="http://www.w3.org/2000/svg" xmlns:xlink="http://www.w3.org/1999/xlink" x="0px" y="0px"
	 viewBox="0 0 214.5 158.3" style="enable-background:new 0 0 214.5 158.3;" xml:space="preserve">
<style type="text/css">
	.st0{fill:#0E1216;}
	.st1{fill:#F6F4EF;fill-opacity:0.24;stroke:#F6F4EF;stroke-width:1.2;stroke-linejoin:round;}
	.st2{fill:#0083A0;fill-opacity:0.88;stroke:#0083A0;stroke-width:1.2;stroke-linejoin:round;}
	.st3{fill:none;stroke:#F6F4EF;stroke-width:1.5;}
	.st4{fill:#F6F4EF;fill-opacity:0.1;}
	.st5{fill:#C84A2E;fill-opacity:0.92;}
	.st6{fill:#F6F4EF;}
	.st7{font-family:'Helvetica-Bold';}
	.st8{font-size:34px;}
	.st9{fill:#0083A0;}
</style>
<rect class="st0" width="214.5" height="158.3"/>
<path class="st1" d="M13.8,63.4h1h1h1h1h1l1,0h1l1,0l1,0l1,0l1,0l1,0l1-0.1l1-0.1l1-0.1l1-0.2l1-0.2l1-0.3l1-0.4l1-0.6l1-0.7l1-0.9
	l1-1.1l1-1.4l1-1.7l1-1.9l1-2.2l1-2.6l1-2.8l1-3l1-3.2l1-3.3l1-3.3l1-3.2l1-2.9l1-2.6l1-2.1l1-1.6l1-1l1-0.3l1,0.3l1,1l1,1.6l1,2.1
	l1,2.6l1,2.9l1,3.2l1,3.3l1,3.3l1,3.2l1,3l1,2.8l1,2.6l1,2.2l1,1.9l1,1.7l1,1.4l1,1.1l1,0.9l1,0.7l1,0.6l1,0.4l1,0.3l1,0.2l1,0.2
	l1,0.1l1,0.1l1,0.1l1,0l1,0l1,0l1,0l1,0h1l1,0h1h1h1h1h1l0,0H13.8z"/>
<path class="st2" d="M66.8,63.4h1.1h1.1h1.1h1.1l1.1,0h1.1h1.1l1.1,0l1.1,0l1.1,0l1.1,0l1.1-0.1l1.1-0.1l1.1-0.1l1.1-0.2l1.1-0.2
	l1.1-0.3l1.1-0.4l1.1-0.6l1.1-0.8l1.1-1l1.1-1.2l1.1-1.5l1.1-1.9l1.1-2.3l1.1-2.7l1.1-3.1l1.1-3.5l1.1-3.8l1.1-4.1l1.1-4.4l1.1-4.5
	l1.1-4.5l1.1-4.3l1.1-4l1.1-3.5l1.1-2.9l1.1-2.2l1.1-1.4l1.1-0.5l1.1,0.5l1.1,1.4l1.1,2.2l1.1,2.9l1.1,3.5l1.1,4l1.1,4.3l1.1,4.5
	l1.1,4.5l1.1,4.4l1.1,4.1l1.1,3.8l1.1,3.5l1.1,3.1l1.1,2.7l1.1,2.3l1.1,1.9l1.1,1.5l1.1,1.2l1.1,1l1.1,0.8l1.1,0.6l1.1,0.4l1.1,0.3
	l1.1,0.2l1.1,0.2l1.1,0.1l1.1,0.1l1.1,0.1l1.1,0l1.1,0l1.1,0l1.1,0h1.1h1.1l1.1,0h1.1h1.1h1.1h1.1l0,0H66.8z"/>
<line class="st3" x1="6.3" y1="63.4" x2="208.3" y2="63.4"/>
<path class="st4" d="M9.3,70.4h196c1.7,0,3,1.3,3,3v16c0,1.7-1.3,3-3,3H9.3c-1.7,0-3-1.3-3-3v-16C6.3,71.7,7.6,70.4,9.3,70.4z"/>
<circle class="st5" cx="46.3" cy="81.4" r="4.9"/>
<circle class="st5" cx="106.3" cy="81.4" r="6.6"/>
<circle class="st5" cx="122.3" cy="81.4" r="8.8"/>
<text transform="matrix(1 0 0 1 0.5883 149.3811)" class="st6 st7 st8">GL</text>
<text transform="matrix(1 0 0 1 46.4031 149.3811)" class="st9 st7 st8">prox</text>
<text transform="matrix(1 0 0 1 117.2809 149.3811)" class="st6 st7 st8">Scape</text>
</svg>
