<svg id="Layer_1" data-name="Layer 1" xmlns="http://www.w3.org/2000/svg" xmlns:xlink="http://www.w3.org/1999/xlink" viewBox="0 0 595.28 240.51"><defs><style>.cls-1{fill:#e6ad6f;stroke:#e45c52;}.cls-1,.cls-105,.cls-106,.cls-107,.cls-108,.cls-111,.cls-112,.cls-123,.cls-133,.cls-136,.cls-138,.cls-2,.cls-27,.cls-48,.cls-57,.cls-58,.cls-67,.cls-68,.cls-69,.cls-70,.cls-71,.cls-81{stroke-miterlimit:3;}.cls-1,.cls-105,.cls-106,.cls-107,.cls-108,.cls-111,.cls-112,.cls-123,.cls-133,.cls-136,.cls-138,.cls-170,.cls-171,.cls-174,.cls-2,.cls-27,.cls-48,.cls-57,.cls-58,.cls-67,.cls-68,.cls-69,.cls-70,.cls-71,.cls-81{stroke-width:0.25px;}.cls-2{fill:#d0e4f0;}.cls-111,.cls-136,.cls-2{stroke:#4a7fa5;}.cls-3{font-size:3.93px;}.cls-147,.cls-148,.cls-149,.cls-150,.cls-162,.cls-23,.cls-28,.cls-3,.cls-43,.cls-72{font-family:Helvetica;}.cls-4{letter-spacing:1.89em;}.cls-5{letter-spacing:1.72em;}.cls-6{letter-spacing:2.05em;}.cls-7{letter-spacing:0.61em;}.cls-8{letter-spacing:0.88em;}.cls-9{letter-spacing:2.05em;}.cls-10{letter-spacing:1.16em;}.cls-11{letter-spacing:0.88em;}.cls-12{letter-spacing:0.88em;}.cls-13{letter-spacing:1em;}.cls-14{letter-spacing:0.5em;}.cls-15{letter-spacing:0.83em;}.cls-16{letter-spacing:1.72em;}.cls-17{letter-spacing:1.44em;}.cls-18{letter-spacing:1.5em;}.cls-19{letter-spacing:1.22em;}.cls-20{letter-spacing:1.22em;}.cls-21{letter-spacing:1.22em;}.cls-22{font-size:12px;}.cls-109,.cls-122,.cls-22,.cls-49,.cls-63,.cls-73,.cls-94{font-family:Helvetica-Bold, Helvetica;font-weight:700;}.cls-108,.cls-109,.cls-111,.cls-113,.cls-114,.cls-122,.cls-125,.cls-126,.cls-139,.cls-141,.cls-23,.cls-28,.cls-29,.cls-43,.cls-44,.cls-49,.cls-50,.cls-59,.cls-60,.cls-61,.cls-62,.cls-63,.cls-67,.cls-68,.cls-72,.cls-73,.cls-75,.cls-76,.cls-82,.cls-86,.cls-87,.cls-88,.cls-89,.cls-94,.cls-95{isolation:isolate;}.cls-148,.cls-23{font-size:7px;}.cls-23{letter-spacing:0.02em;}.cls-24{letter-spacing:-0.03em;}.cls-25{letter-spacing:0.02em;}.cls-110,.cls-136,.cls-26{fill:#4a7fa5;}.cls-27{fill:#f7f5f0;}.cls-27,.cls-57,.cls-67{stroke:#8fa3b8;}.cls-28{font-size:4.75px;}.cls-29{font-size:3.63px;}.cls-113,.cls-114,.cls-126,.cls-139,.cls-141,.cls-29,.cls-44,.cls-50,.cls-75,.cls-76,.cls-95{font-family:SourceSans3-Regular,'Source Sans 3',Helvetica,Arial,sans-serif"Source Sans 3";}.cls-30{letter-spacing:-0.02em;}.cls-31{letter-spacing:-0.02em;}.cls-32{fill:#444;}.cls-33{letter-spacing:-0.01em;}.cls-34{letter-spacing:0.01em;}.cls-35{letter-spacing:-0.01em;}.cls-36{letter-spacing:-0.02em;}.cls-37{letter-spacing:-0.01em;}.cls-38{letter-spacing:-0.02em;}.cls-39{letter-spacing:-0.01em;}.cls-40{letter-spacing:0em;}.cls-41{letter-spacing:0em;}.cls-42{letter-spacing:-0.01em;}.cls-43{font-size:4.19px;}.cls-44{opacity:0.8;font-size:3.35px;}.cls-45{letter-spacing:-0.01em;}.cls-46{letter-spacing:-0.02em;}.cls-47{letter-spacing:-0.01em;}.cls-105,.cls-106,.cls-107,.cls-108,.cls-111,.cls-112,.cls-138,.cls-146,.cls-166,.cls-168,.cls-169,.cls-170,.cls-172,.cls-174,.cls-48,.cls-57,.cls-58,.cls-67,.cls-68,.cls-71,.cls-81{fill:none;}.cls-48{stroke:#666;}.cls-49{font-size:5.68px;}.cls-122,.cls-133,.cls-49,.cls-50,.cls-63,.cls-72,.cls-75,.cls-93{fill:#2d3a4a;}.cls-50{font-size:5.35px;}.cls-51{letter-spacing:-0.01em;}.cls-52{letter-spacing:0em;}.cls-53{letter-spacing:-0.02em;}.cls-54{letter-spacing:-0.01em;}.cls-55{letter-spacing:-0.02em;}.cls-56{letter-spacing:-0.01em;}.cls-58,.cls-68{stroke:#b0c4d4;}.cls-59,.cls-86{fill:#e8a87c;}.cls-125,.cls-59,.cls-60,.cls-61,.cls-88{opacity:0.9;}.cls-60,.cls-87{fill:#7ab87a;}.cls-61{fill:#7a8ab8;}.cls-62,.cls-88{fill:#c87aaa;}.cls-62{opacity:0.85;}.cls-63{font-size:4.35px;}.cls-109,.cls-125,.cls-139,.cls-64,.cls-73,.cls-82{fill:#c0392b;}.cls-65{letter-spacing:-0.02em;}.cls-66{letter-spacing:-0.01em;}.cls-67,.cls-68{opacity:0.3;}.cls-69{fill:#a0a8b0;}.cls-69,.cls-70{stroke:#6a7880;}.cls-70{fill:#8a9098;}.cls-108,.cls-138,.cls-71,.cls-81{stroke:#c0392b;}.cls-72,.cls-73,.cls-75,.cls-82,.cls-89{font-size:4.01px;}.cls-74{letter-spacing:-0.04em;}.cls-76{font-size:3.88px;fill:#666;}.cls-77{letter-spacing:-0.02em;}.cls-78{letter-spacing:-0.01em;}.cls-79{letter-spacing:-0.02em;}.cls-80{fill:url(#Adsız_degrade_2);}.cls-81{stroke-dasharray:1.87 1.5;}.cls-82,.cls-89{font-family:SourceSans3-It,'Source Sans 3',Helvetica,Arial,sans-serif"Source Sans 3";font-style:italic;}.cls-83{letter-spacing:-0.01em;}.cls-84{letter-spacing:-0.03em;}.cls-85{letter-spacing:-0.02em;}.cls-86,.cls-87{opacity:0.95;}.cls-124,.cls-89{fill:#e07b39;}.cls-90{letter-spacing:-0.01em;}.cls-91{letter-spacing:0em;}.cls-92{fill:#ed8a19;}.cls-94{font-size:5.98px;}.cls-94,.cls-95{fill:#fff;}.cls-95{opacity:0.82;}.cls-109,.cls-126,.cls-139,.cls-95{font-size:3.27px;}.cls-100,.cls-96,.cls-97,.cls-98,.cls-99{font-size:4.35px;}.cls-97{letter-spacing:0.01em;}.cls-98{letter-spacing:0em;}.cls-99{letter-spacing:-0.02em;}.cls-100{letter-spacing:0em;}.cls-101{letter-spacing:0.02em;}.cls-102{letter-spacing:-0.02em;}.cls-103{letter-spacing:0em;}.cls-104{fill:#fafbfc;}.cls-105{stroke:#e0e6ed;}.cls-106{stroke:#e8edf2;}.cls-107{stroke:#eef1f5;}.cls-108{stroke-dasharray:3.75 2.62;opacity:0.75;}.cls-110{fill-opacity:0.14;}.cls-111{opacity:0.65;}.cls-112{stroke:#2d3a4a;}.cls-113{font-size:3.5px;}.cls-114{font-size:4.86px;}.cls-115{letter-spacing:0em;}.cls-116{letter-spacing:-0.01em;}.cls-117{letter-spacing:-0.02em;}.cls-118{letter-spacing:0em;}.cls-119{letter-spacing:-0.01em;}.cls-120{letter-spacing:-0.01em;}.cls-121{letter-spacing:-0.04em;}.cls-122{font-size:3.73px;}.cls-123{fill:#f0f3f6;stroke:#dde3ea;}.cls-127{letter-spacing:-0.02em;}.cls-128{letter-spacing:-0.01em;}.cls-129{letter-spacing:-0.01em;}.cls-130{letter-spacing:0.01em;}.cls-131{letter-spacing:0em;}.cls-132{letter-spacing:0em;}.cls-133,.cls-169{stroke:#fff;}.cls-134{letter-spacing:-0.01em;}.cls-135{letter-spacing:-0.02em;}.cls-136{fill-opacity:0.35;}.cls-137{letter-spacing:0em;}.cls-138{stroke-dasharray:3 1.87;}.cls-140{letter-spacing:-0.04em;}.cls-141{font-size:3.8px;}.cls-142{letter-spacing:-0.03em;}.cls-143{letter-spacing:0em;}.cls-144{letter-spacing:-0.01em;}.cls-145{letter-spacing:-0.01em;}.cls-146{stroke:#e63946;stroke-width:0.33px;opacity:0.65;}.cls-146,.cls-169,.cls-172,.cls-174{stroke-linejoin:round;}.cls-147{font-size:4.28px;}.cls-149{font-size:4.61px;}.cls-150{font-size:4.06px;}.cls-151{letter-spacing:1.05em;}.cls-152{letter-spacing:1.54em;}.cls-153{letter-spacing:1.77em;}.cls-154{letter-spacing:0.5em;}.cls-155{letter-spacing:1.77em;}.cls-156{letter-spacing:-0.08em;}.cls-157{letter-spacing:-0.19em;}.cls-158{letter-spacing:-0.08em;}.cls-159{letter-spacing:0.15em;}.cls-160{letter-spacing:1.7em;}.cls-161{letter-spacing:0.94em;}.cls-162{font-size:4px;}.cls-163,.cls-171{fill:#f7f7f7;}.cls-164{fill:#f0f0f0;}.cls-165{fill:#c7c7c7;opacity:0.55;}.cls-166{stroke:#8c8c8c;stroke-width:0.16px;}.cls-166,.cls-168,.cls-170,.cls-171{stroke-miterlimit:10;}.cls-167,.cls-173{fill:#e63946;}.cls-167{opacity:0.9;}.cls-168,.cls-170,.cls-174{stroke:#000;}.cls-168{stroke-width:0.19px;}.cls-169,.cls-174{stroke-linecap:round;}.cls-169{stroke-width:0.26px;}.cls-171{stroke:#231f20;}.cls-172{stroke:#f4a261;stroke-width:0.5px;opacity:0.7;}.cls-173,.cls-174,.cls-175{opacity:0.95;}.cls-175{fill:#2a9d8f;}</style><radialGradient id="Adsız_degrade_2" cx="1521.77" cy="595.07" r="0.62" gradientTransform="matrix(90.15, 0, 0, -50.17, -137079.51, 30006.88)" gradientUnits="userSpaceOnUse"><stop offset="0" stop-color="#c0392b" stop-opacity="0.28"/><stop offset="1" stop-color="#c0392b" stop-opacity="0"/></radialGradient></defs><path class="cls-1" d="M496.46,18.07h52.05c.91,0,1.65.31,1.65.68v6.5c0,.38-.74.69-1.65.69H496.46c-.91,0-1.65-.31-1.65-.69v-6.5C494.81,18.38,495.55,18.07,496.46,18.07Z"/><path class="cls-2" d="M449.26,78.56H586.91a4.54,4.54,0,0,1,4.37,4.69v44.51a4.54,4.54,0,0,1-4.37,4.68H449.26a4.54,4.54,0,0,1-4.37-4.68V83.25A4.54,4.54,0,0,1,449.26,78.56Z"/><text class="cls-3" transform="translate(448.46 82.94)">name<tspan class="cls-4" x="9.84" y="0">	</tspan><tspan x="18.36" y="0">logFC</tspan><tspan class="cls-5" x="28.85" y="0">	</tspan><tspan class="cls-6" x="36.72" y="0">	</tspan><tspan x="45.9" y="0">ave_exp</tspan><tspan class="cls-7" x="60.77" y="0">	</tspan><tspan class="cls-6" x="64.25" y="0">	</tspan><tspan x="73.43" y="0">P.Value</tspan><tspan class="cls-8" x="87.21" y="0">	</tspan><tspan class="cls-9" x="91.79" y="0">	</tspan><tspan x="100.97" y="0">minus_log_pval</tspan><tspan x="0" y="4.72">DDX28</tspan><tspan class="cls-10" x="12.69" y="4.72">	</tspan><tspan x="18.36" y="4.72">2.406914217</tspan><tspan class="cls-11" x="41.34" y="4.72">	</tspan><tspan x="45.9" y="4.72">22.78660883</tspan><tspan class="cls-12" x="68.87" y="4.72">	</tspan><tspan x="73.43" y="4.72">7.86e-5</tspan><tspan class="cls-13" x="86.78" y="4.72">	</tspan><tspan class="cls-6" x="91.79" y="4.72">	</tspan><tspan x="100.97" y="4.72">4.104577453960592</tspan><tspan x="0" y="9.44">POU3F2</tspan><tspan class="cls-14" x="15.31" y="9.44">	</tspan><tspan x="18.36" y="9.44">2.312049021</tspan><tspan class="cls-11" x="41.34" y="9.44">	</tspan><tspan x="45.9" y="9.44">23.82995312</tspan><tspan class="cls-11" x="68.87" y="9.44">	</tspan><tspan x="73.43" y="9.44">0.006996413</tspan><tspan class="cls-11" x="96.41" y="9.44">	</tspan><tspan x="100.97" y="9.44">2.155124561925353</tspan><tspan x="0" y="14.17">C8orf33</tspan><tspan class="cls-15" x="14" y="14.17">	</tspan><tspan x="18.36" y="14.17">2.169286126</tspan><tspan class="cls-11" x="41.34" y="14.17">	</tspan><tspan x="45.9" y="14.17">24.32240094</tspan><tspan class="cls-11" x="68.87" y="14.17">	</tspan><tspan x="73.43" y="14.17">0.010332622</tspan><tspan class="cls-11" x="96.41" y="14.17">	</tspan><tspan x="100.97" y="14.17">1.9857894581862017</tspan><tspan x="0" y="18.89">TFRC</tspan><tspan class="cls-16" x="10.49" y="18.89">	</tspan><tspan x="18.36" y="18.89">2.12055487</tspan><tspan class="cls-17" x="39.15" y="18.89">	</tspan><tspan x="45.9" y="18.89">22.60198738</tspan><tspan class="cls-11" x="68.87" y="18.89">	</tspan><tspan x="73.43" y="18.89">0.005488251</tspan><tspan class="cls-11" x="96.41" y="18.89">	</tspan><tspan x="100.97" y="18.89">2.2605660347972534</tspan><tspan x="0" y="23.61">SETDB1</tspan><tspan class="cls-14" x="15.31" y="23.61">	</tspan><tspan x="18.36" y="23.61">2.064186904</tspan><tspan class="cls-11" x="41.34" y="23.61">	</tspan><tspan x="45.9" y="23.61">23.55243189</tspan><tspan class="cls-11" x="68.87" y="23.61">	</tspan><tspan x="73.43" y="23.61">0.009254444</tspan><tspan class="cls-12" x="96.41" y="23.61">	</tspan><tspan x="100.97" y="23.61">2.0336496682114977</tspan><tspan x="0" y="28.33">PINX1</tspan><tspan class="cls-18" x="11.37" y="28.33">	</tspan><tspan x="18.36" y="28.33">1.860193273</tspan><tspan class="cls-11" x="41.34" y="28.33">	</tspan><tspan x="45.9" y="28.33">24.33490868</tspan><tspan class="cls-11" x="68.87" y="28.33">	</tspan><tspan x="73.43" y="28.33">0.002295767</tspan><tspan class="cls-11" x="96.41" y="28.33">	</tspan><tspan x="100.97" y="28.33">2.6390721910776724</tspan><tspan x="0" y="33.05">DHX35</tspan><tspan class="cls-10" x="12.69" y="33.05">	</tspan><tspan x="18.36" y="33.05">1.829753579</tspan><tspan class="cls-11" x="41.34" y="33.05">	</tspan><tspan x="45.9" y="33.05">25.1250811</tspan><tspan class="cls-17" x="66.68" y="33.05">	</tspan><tspan x="73.43" y="33.05">0.03579488</tspan><tspan class="cls-17" x="94.22" y="33.05">	</tspan><tspan x="100.97" y="33.05">1.4461790891876247</tspan><tspan x="0" y="37.78">CSE1L</tspan><tspan class="cls-19" x="12.47" y="37.78">	</tspan><tspan x="18.36" y="37.78">1.785720648</tspan><tspan class="cls-11" x="41.34" y="37.78">	</tspan><tspan x="45.9" y="37.78">27.12261677</tspan><tspan class="cls-11" x="68.87" y="37.78">	</tspan><tspan x="73.43" y="37.78">0.115004354</tspan><tspan class="cls-11" x="96.41" y="37.78">	</tspan><tspan x="100.97" y="37.78">0.9392857171909169</tspan><tspan x="0" y="42.5">RER1</tspan><tspan class="cls-5" x="10.5" y="42.5">	</tspan><tspan x="18.36" y="42.5">1.586093649</tspan><tspan class="cls-11" x="41.34" y="42.5">	</tspan><tspan x="45.9" y="42.5">24.19392935</tspan><tspan class="cls-11" x="68.87" y="42.5">	</tspan><tspan x="73.43" y="42.5">0.099874785</tspan><tspan class="cls-12" x="96.41" y="42.5">	</tspan><tspan x="100.97" y="42.5">1.0005441425807218</tspan><tspan x="0" y="47.22">...</tspan><tspan class="cls-20" x="3.28" y="47.22">	</tspan><tspan class="cls-6" x="9.18" y="47.22">	</tspan><tspan x="18.36" y="47.22">...</tspan><tspan class="cls-20" x="21.64" y="47.22">	</tspan><tspan class="cls-6" x="27.54" y="47.22" xml:space="preserve">		</tspan><tspan x="45.89" y="47.22">...</tspan><tspan class="cls-21" x="49.17" y="47.22">	</tspan><tspan class="cls-9" x="55.07" y="47.22" xml:space="preserve">		</tspan><tspan x="73.43" y="47.22">...</tspan><tspan class="cls-21" x="76.71" y="47.22">	</tspan><tspan class="cls-9" x="82.61" y="47.22" xml:space="preserve">		</tspan><tspan x="100.97" y="47.22">...</tspan></text><text class="cls-22" transform="translate(4.94 13.91)">A)</text><text class="cls-22" transform="translate(426.9 13.91)">B)</text><text class="cls-23" transform="translate(21.46 23.05)">CASPEX Labeling</text><text class="cls-23" transform="translate(162 23.05)">Proteomics Data<tspan class="cls-24" x="54.05" y="0"> </tspan><tspan class="cls-25" x="55.77" y="0">Analysis</tspan></text><path class="cls-26" d="M144.51,35.61V46.55l10.94-5.47Z"/><path class="cls-27" d="M165.08,29.57h52.18c.92,0,1.66,1.08,1.66,2.42V50.17c0,1.33-.74,2.42-1.66,2.42H165.08c-.91,0-1.66-1.09-1.66-2.42V32C163.42,30.65,164.17,29.57,165.08,29.57Z"/><text class="cls-28" transform="translate(176.54 38.95)">Raw MS data</text><text class="cls-29" transform="translate(168.71 46.21)">.<tspan class="cls-30" x="0.9" y="0">r</tspan><tspan x="2.08" y="0">aw files per sgRNA </tspan><tspan class="cls-31" x="30.42" y="0">c</tspan><tspan x="32" y="0">ondition</tspan></text><path class="cls-32" d="M295.59,38.9v4.36L300,41.08Z"/><path class="cls-32" d="M368.07,38.9v4.36l4.36-2.18Z"/><path class="cls-27" d="M305.93,29.44h56.16a1.91,1.91,0,0,1,1.78,2V50.69a1.91,1.91,0,0,1-1.78,2H305.93a1.92,1.92,0,0,1-1.78-2V31.46A1.92,1.92,0,0,1,305.93,29.44Z"/><text class="cls-28" transform="translate(314.37 36.44)">Statistical testing</text><text class="cls-29" transform="translate(313.5 43.14)">log<tspan class="cls-33" x="4.72" y="0">F</tspan><tspan x="6.48" y="0">C &amp; </tspan><tspan class="cls-34" x="12.21" y="0">p</tspan><tspan class="cls-35" x="14.25" y="0">-</tspan><tspan class="cls-36" x="15.35" y="0">v</tspan><tspan x="16.97" y="0">alue per p</tspan><tspan class="cls-37" x="32.04" y="0">r</tspan><tspan class="cls-38" x="33.26" y="0">o</tspan><tspan class="cls-39" x="35.16" y="0">t</tspan><tspan class="cls-40" x="36.34" y="0">ein</tspan></text><text class="cls-29" transform="translate(320.24 48.72)">vs. n<tspan class="cls-33" x="6.83" y="0">e</tspan><tspan x="8.59" y="0">g. </tspan><tspan class="cls-37" x="12.05" y="0">c</tspan><tspan x="13.67" y="0">trl sgRNA</tspan></text><path class="cls-32" d="M223.12,38.9v4.36l4.35-2.18Z"/><path class="cls-27" d="M233.45,29.44h56.16a1.92,1.92,0,0,1,1.79,2V50.69a1.92,1.92,0,0,1-1.79,2H233.45a1.92,1.92,0,0,1-1.78-2V31.46A1.92,1.92,0,0,1,233.45,29.44Z"/><text class="cls-28" transform="translate(236.75 36.44)">Protein Quantification</text><text class="cls-29" transform="translate(250.36 43.14)">L<tspan class="cls-37" x="1.76" y="0">F</tspan><tspan class="cls-41" x="3.52" y="0">Q in</tspan><tspan class="cls-42" x="9.53" y="0">t</tspan><tspan x="10.71" y="0">ensities</tspan></text><text class="cls-29" transform="translate(257.85 48.72)">iB<tspan class="cls-37" x="3.03" y="0">A</tspan><tspan x="4.96" y="0">Q</tspan></text><path class="cls-2" d="M378.22,29h50.3a1.9,1.9,0,0,1,1.6,2.1v20a1.9,1.9,0,0,1-1.6,2.1h-50.3a1.9,1.9,0,0,1-1.59-2.1v-20A1.9,1.9,0,0,1,378.22,29Z"/><text class="cls-43" transform="translate(382.67 37.83)">logFC p-value matrix</text><text class="cls-44" transform="translate(389.63 46.94)">per sgRNA × p<tspan class="cls-45" x="19.2" y="0">r</tspan><tspan class="cls-46" x="20.33" y="0">o</tspan><tspan class="cls-47" x="22.09" y="0">t</tspan><tspan x="23.17" y="0">ein</tspan></text><path class="cls-26" d="M302.24,55.92H291.3l5.47,10.94Z"/><line class="cls-48" x1="423.42" y1="171.16" x2="423.42" y2="172.56"/><text class="cls-49" transform="translate(22.21 35.71)">(i)</text><text class="cls-50" transform="translate(31.57 35.71)">Basal p<tspan class="cls-51" x="16.19" y="0">r</tspan><tspan class="cls-52" x="17.99" y="0">om</tspan><tspan class="cls-53" x="25.33" y="0">o</tspan><tspan class="cls-54" x="28.14" y="0">t</tspan><tspan x="29.88" y="0">er </tspan><tspan class="cls-55" x="35.46" y="0">st</tspan><tspan class="cls-56" x="39.29" y="0">at</tspan><tspan x="43.65" y="0">e</tspan></text><line class="cls-57" x1="24.88" y1="54.43" x2="130.52" y2="54.43"/><circle class="cls-57" cx="30.9" cy="54.43" r="4.68"/><circle class="cls-58" cx="40.26" cy="54.43" r="4.68"/><circle class="cls-57" cx="49.62" cy="54.43" r="4.68"/><ellipse class="cls-59" cx="72.35" cy="49.75" rx="8.69" ry="6.02"/><ellipse class="cls-60" cx="79.71" cy="51.09" rx="7.35" ry="5.35"/><ellipse class="cls-61" cx="68.34" cy="52.42" rx="6.69" ry="5.01"/><ellipse class="cls-62" cx="76.37" cy="45.74" rx="5.35" ry="4.68"/><ellipse class="cls-59" cx="72.35" cy="97.5" rx="8.69" ry="6.02"/><ellipse class="cls-60" cx="79.71" cy="98.84" rx="7.35" ry="5.35"/><ellipse class="cls-61" cx="68.34" cy="100.17" rx="6.69" ry="5.01"/><ellipse class="cls-62" cx="76.37" cy="93.49" rx="5.35" ry="4.68"/><ellipse class="cls-59" cx="72.35" cy="148.39" rx="8.69" ry="6.02"/><ellipse class="cls-60" cx="79.71" cy="149.73" rx="7.35" ry="5.35"/><ellipse class="cls-61" cx="68.34" cy="151.06" rx="6.69" ry="5.01"/><ellipse class="cls-62" cx="76.37" cy="144.38" rx="5.35" ry="4.68"/><text class="cls-63" transform="translate(92.92 50.42)">TSS</text><rect class="cls-64" x="93.08" y="51.42" width="8.69" height="6.02" rx="1"/><path class="cls-32" d="M93.18,51.42v6l6-3Z"/><rect class="cls-64" x="103.11" y="51.42" width="4.68" height="6.02" rx="0.67"/><circle class="cls-57" cx="118.49" cy="54.43" r="4.68"/><circle class="cls-58" cx="127.85" cy="54.43" r="4.68"/><path class="cls-32" d="M80.31,64.35H75.1l2.6,5.21Z"/><text class="cls-49" transform="translate(22.21 75.82)">(ii)</text><text class="cls-50" transform="translate(31.57 75.82)">dCas9–APEX2 <tspan class="cls-65" x="31.43" y="0">t</tspan><tspan x="33.13" y="0">a</tspan><tspan class="cls-66" x="35.83" y="0">r</tspan><tspan class="cls-56" x="37.63" y="0">g</tspan><tspan class="cls-51" x="40.25" y="0">e</tspan><tspan x="42.86" y="0">ting</tspan></text><line class="cls-57" x1="24.88" y1="99" x2="130.52" y2="99"/><circle class="cls-67" cx="30.9" cy="99" r="4.68"/><circle class="cls-68" cx="40.26" cy="99" r="4.68"/><circle class="cls-67" cx="49.62" cy="99" r="4.68"/><ellipse class="cls-69" cx="105.12" cy="87.64" rx="12.03" ry="8.69"/><ellipse class="cls-70" cx="98.2" cy="97" rx="6.02" ry="4.68"/><ellipse class="cls-69" cx="105.12" cy="141.57" rx="12.03" ry="8.69"/><ellipse class="cls-70" cx="98.2" cy="150.93" rx="6.02" ry="4.68"/><line class="cls-71" x1="97.45" y1="149.43" x2="90.57" y2="149.42"/><text class="cls-72" transform="translate(108.08 78.43)">APEX2</text><text class="cls-73" transform="translate(81.05 106.61)">sgRN<tspan class="cls-74" x="10.48" y="0">A</tspan></text><line class="cls-71" x1="92.75" y1="100.47" x2="88.07" y2="103.68"/><text class="cls-75" transform="translate(97.07 104.5)">dCas9</text><circle class="cls-67" cx="118.49" cy="99" r="4.68"/><circle class="cls-68" cx="127.85" cy="99" r="4.68"/><path class="cls-32" d="M79.64,116H74.43L77,121.22Z"/><text class="cls-76" transform="translate(27.56 112.6)">+Bi<tspan class="cls-77" x="5.16" y="0">o</tspan><tspan x="7.2" y="0">tinyl</tspan><tspan class="cls-78" x="14.39" y="0">a</tspan><tspan x="16.29" y="0">tion</tspan></text><text class="cls-49" transform="translate(22.21 129.31)">(iii)</text><text class="cls-50" transform="translate(31.57 129.31)">P<tspan class="cls-66" x="3.03" y="0">r</tspan><tspan class="cls-79" x="4.83" y="0">o</tspan><tspan x="7.64" y="0">ximity labeling</tspan></text><ellipse class="cls-80" cx="101.81" cy="151.9" rx="55.56" ry="30.92"/><line class="cls-57" x1="24.88" y1="148.93" x2="130.52" y2="148.93"/><circle class="cls-67" cx="30.9" cy="148.93" r="4.68"/><circle class="cls-68" cx="40.26" cy="148.93" r="4.68"/><circle class="cls-67" cx="49.62" cy="148.93" r="4.68"/><line class="cls-81" x1="62.08" y1="162.3" x2="138.13" y2="162.3"/><line class="cls-71" x1="62.08" y1="159.62" x2="62.08" y2="164.97"/><line class="cls-71" x1="135.96" y1="159.62" x2="135.96" y2="164.97"/><text class="cls-82" transform="translate(83.51 167)">labeling <tspan class="cls-83" x="14.22" y="0">r</tspan><tspan x="15.55" y="0">adius</tspan></text><circle class="cls-67" cx="118.49" cy="148.93" r="4.68"/><circle class="cls-68" cx="127.85" cy="148.93" r="4.68"/><path class="cls-32" d="M80.31,174.77H75.1L77.7,180Z"/><text class="cls-49" transform="translate(22.21 191.04)">(iv)</text><text class="cls-50" transform="translate(31.57 191.04)">Bi<tspan class="cls-79" x="4.46" y="0">o</tspan><tspan x="7.27" y="0">tin</tspan><tspan class="cls-84" x="13.33" y="0">-</tspan><tspan class="cls-85" x="14.85" y="0">t</tspan><tspan x="16.55" y="0">ag</tspan><tspan class="cls-56" x="21.94" y="0">g</tspan><tspan x="24.57" y="0">ed p</tspan><tspan class="cls-51" x="34.23" y="0">r</tspan><tspan class="cls-53" x="36.04" y="0">o</tspan><tspan class="cls-54" x="38.85" y="0">t</tspan><tspan x="40.58" y="0">eins</tspan></text><line class="cls-57" x1="24.88" y1="215.12" x2="130.52" y2="215.12"/><circle class="cls-57" cx="30.9" cy="215.12" r="4.68"/><circle class="cls-58" cx="40.26" cy="215.12" r="4.68"/><ellipse class="cls-86" cx="72.35" cy="209.77" rx="8.69" ry="6.02"/><ellipse class="cls-87" cx="79.71" cy="211.11" rx="7.35" ry="5.35"/><ellipse class="cls-61" cx="68.34" cy="212.44" rx="6.69" ry="5.01"/><ellipse class="cls-88" cx="76.37" cy="205.76" rx="5.35" ry="4.68"/><ellipse class="cls-88" cx="132.53" cy="148.1" rx="5.35" ry="4.68"/><ellipse class="cls-88" cx="132.53" cy="214.29" rx="5.35" ry="4.68"/><ellipse class="cls-69" cx="103.44" cy="209.77" rx="12.03" ry="8.69"/><ellipse class="cls-70" cx="99.43" cy="214.45" rx="6.02" ry="4.68"/><circle class="cls-57" cx="118.49" cy="215.12" r="4.68"/><circle class="cls-58" cx="127.85" cy="215.12" r="4.68"/><text class="cls-89" transform="translate(25.95 227.34)">= Biotin-phenol <tspan class="cls-90" x="25.73" y="0">t</tspan><tspan class="cls-91" x="27" y="0">ag</tspan></text><line class="cls-71" x1="96.19" y1="99.77" x2="89.31" y2="99.78"/><line class="cls-71" x1="96.19" y1="215.78" x2="89.31" y2="215.79"/><g id="SVGRepo_iconCarrier" data-name="SVGRepo iconCarrier"><path class="cls-92" d="M113.48,202.89l.59,1.21a.27.27,0,0,0,.22.15l1.32.2a.28.28,0,0,1,.16.48l-1,.94a.25.25,0,0,0-.08.25l.22,1.32a.28.28,0,0,1-.41.3l-1.18-.63a.32.32,0,0,0-.27,0l-1.19.63a.28.28,0,0,1-.41-.3l.23-1.32a.25.25,0,0,0-.08-.25l-1-.94a.28.28,0,0,1,.16-.48l1.32-.2a.27.27,0,0,0,.22-.15l.59-1.21A.29.29,0,0,1,113.48,202.89Z"/></g><g id="SVGRepo_iconCarrier-2" data-name="SVGRepo iconCarrier"><path class="cls-92" d="M134.05,207.6l.59,1.2a.27.27,0,0,0,.22.16l1.32.19a.28.28,0,0,1,.16.48l-1,.94a.27.27,0,0,0-.08.25l.23,1.32a.29.29,0,0,1-.42.3l-1.18-.62a.32.32,0,0,0-.27,0l-1.18.62a.29.29,0,0,1-.42-.3l.23-1.32a.27.27,0,0,0-.08-.25l-1-.94a.28.28,0,0,1,.16-.48l1.32-.19a.27.27,0,0,0,.22-.16l.59-1.2A.29.29,0,0,1,134.05,207.6Z"/></g><g id="SVGRepo_iconCarrier-3" data-name="SVGRepo iconCarrier"><path class="cls-92" d="M97.35,200.28l.59,1.2a.29.29,0,0,0,.22.16l1.32.19a.28.28,0,0,1,.16.48l-1,.94a.27.27,0,0,0-.08.25l.23,1.32a.29.29,0,0,1-.42.3l-1.18-.62a.26.26,0,0,0-.27,0l-1.18.62a.29.29,0,0,1-.42-.3l.23-1.32a.27.27,0,0,0-.08-.25l-1-.94a.28.28,0,0,1,.16-.48l1.32-.19a.29.29,0,0,0,.22-.16l.59-1.2A.29.29,0,0,1,97.35,200.28Z"/></g><g id="SVGRepo_iconCarrier-4" data-name="SVGRepo iconCarrier"><path class="cls-92" d="M86.93,207.41l.59,1.2a.29.29,0,0,0,.21.16l1.33.19a.28.28,0,0,1,.16.48l-1,.94a.27.27,0,0,0-.08.25L88.4,212a.28.28,0,0,1-.41.3l-1.18-.62a.32.32,0,0,0-.27,0l-1.19.62a.28.28,0,0,1-.41-.3l.23-1.32a.29.29,0,0,0-.08-.25l-1-.94a.28.28,0,0,1,.15-.48l1.33-.19a.32.32,0,0,0,.22-.16l.59-1.2A.29.29,0,0,1,86.93,207.41Z"/></g><g id="SVGRepo_iconCarrier-5" data-name="SVGRepo iconCarrier"><path class="cls-92" d="M81.3,210.6l.59,1.2a.31.31,0,0,0,.22.15l1.33.2a.28.28,0,0,1,.15.48l-1,.94a.29.29,0,0,0-.08.25l.23,1.32a.28.28,0,0,1-.41.3l-1.19-.63a.32.32,0,0,0-.27,0l-1.18.63a.28.28,0,0,1-.41-.3l.22-1.32a.26.26,0,0,0-.08-.25l-1-.94a.28.28,0,0,1,.16-.48L80,212a.27.27,0,0,0,.21-.15l.59-1.2A.28.28,0,0,1,81.3,210.6Z"/></g><g id="SVGRepo_iconCarrier-6" data-name="SVGRepo iconCarrier"><path class="cls-92" d="M73.33,197.86l.6,1.2a.26.26,0,0,0,.21.16l1.33.19a.29.29,0,0,1,.16.49l-1,.93a.33.33,0,0,0-.08.25l.23,1.32a.28.28,0,0,1-.41.3l-1.19-.62a.3.3,0,0,0-.26,0l-1.19.62a.28.28,0,0,1-.41-.3l.23-1.32a.3.3,0,0,0-.09-.25l-1-.93a.29.29,0,0,1,.16-.49l1.33-.19a.26.26,0,0,0,.21-.16l.59-1.2A.29.29,0,0,1,73.33,197.86Z"/></g><g id="SVGRepo_iconCarrier-7" data-name="SVGRepo iconCarrier"><path class="cls-92" d="M79.34,200.38l.59,1.2a.31.31,0,0,0,.21.16l1.33.19a.28.28,0,0,1,.16.48l-1,.94a.26.26,0,0,0-.08.25l.22,1.32a.28.28,0,0,1-.41.3l-1.18-.62a.26.26,0,0,0-.27,0l-1.19.62a.28.28,0,0,1-.41-.3l.23-1.32a.29.29,0,0,0-.08-.25l-1-.94a.28.28,0,0,1,.15-.48l1.33-.19a.36.36,0,0,0,.22-.16l.59-1.2A.29.29,0,0,1,79.34,200.38Z"/></g><g id="SVGRepo_iconCarrier-8" data-name="SVGRepo iconCarrier"><path class="cls-92" d="M68.07,201.94l.59,1.21a.27.27,0,0,0,.22.15l1.32.19a.29.29,0,0,1,.16.49l-1,.93a.28.28,0,0,0-.08.26l.23,1.32a.29.29,0,0,1-.42.3L68,206.16a.32.32,0,0,0-.27,0l-1.18.63a.29.29,0,0,1-.42-.3l.23-1.32a.28.28,0,0,0-.08-.26l-1-.93a.29.29,0,0,1,.16-.49l1.32-.19a.27.27,0,0,0,.22-.15l.59-1.21A.29.29,0,0,1,68.07,201.94Z"/></g><g id="SVGRepo_iconCarrier-9" data-name="SVGRepo iconCarrier"><path class="cls-92" d="M68.07,210.12l.59,1.2a.31.31,0,0,0,.22.16l1.32.19a.28.28,0,0,1,.16.48l-1,.94a.26.26,0,0,0-.08.25l.23,1.32a.29.29,0,0,1-.42.3L68,214.34a.26.26,0,0,0-.27,0L66.5,215a.29.29,0,0,1-.42-.3l.23-1.32a.26.26,0,0,0-.08-.25l-1-.94a.28.28,0,0,1,.16-.48l1.32-.19a.31.31,0,0,0,.22-.16l.59-1.2A.29.29,0,0,1,68.07,210.12Z"/></g><g id="SVGRepo_iconCarrier-10" data-name="SVGRepo iconCarrier"><path class="cls-92" d="M23,223.65l.6,1.2a.27.27,0,0,0,.21.15l1.33.2a.28.28,0,0,1,.15.48l-1,.94a.32.32,0,0,0-.08.25l.23,1.32a.28.28,0,0,1-.41.3l-1.19-.62a.24.24,0,0,0-.26,0l-1.19.62a.28.28,0,0,1-.41-.3l.22-1.32a.26.26,0,0,0-.08-.25l-1-.94a.28.28,0,0,1,.16-.48l1.33-.2a.27.27,0,0,0,.21-.15l.59-1.2A.29.29,0,0,1,23,223.65Z"/></g><path class="cls-93" d="M161.09,70.06H425.88a1.36,1.36,0,0,1,1.33,1.4V78a1.36,1.36,0,0,1-1.33,1.4H161.09a1.37,1.37,0,0,1-1.34-1.4V71.46A1.37,1.37,0,0,1,161.09,70.06Z"/><text class="cls-94" transform="translate(161.8 76.52) scale(0.99 1)">GLproxScape</text><text class="cls-95" transform="translate(206.78 75.89) scale(0.99 1)"> <tspan class="cls-96" x="0.65" y="0">Binding </tspan><tspan class="cls-97" x="15.58" y="0">e</tspan><tspan class="cls-98" x="17.76" y="0">v</tspan><tspan class="cls-96" x="19.77" y="0">ent de</tspan><tspan class="cls-99" x="31.22" y="0">c</tspan><tspan class="cls-96" x="33.11" y="0">on</tspan><tspan class="cls-98" x="37.85" y="0">v</tspan><tspan class="cls-100" x="39.86" y="0">olution</tspan><tspan x="52.97" y="0" xml:space="preserve">  |  7 sgRN</tspan><tspan class="cls-101" x="65.63" y="0">A</tspan><tspan x="67.48" y="0" xml:space="preserve">s  |  </tspan><tspan class="cls-102" x="72.25" y="0">k</tspan><tspan class="cls-103" x="73.8" y="0">ernel = 300 bp</tspan></text><rect class="cls-104" x="172.47" y="87.18" width="254.74" height="83.98"/><line class="cls-105" x1="172.47" y1="87.18" x2="172.47" y2="171.16"/><line class="cls-106" x1="223.79" y1="87.18" x2="223.79" y2="171.16"/><line class="cls-106" x1="274.65" y1="87.18" x2="274.65" y2="171.16"/><line class="cls-106" x1="325.5" y1="87.18" x2="325.5" y2="171.16"/><line class="cls-106" x1="376.36" y1="87.18" x2="376.36" y2="171.16"/><line class="cls-106" x1="172.47" y1="87.18" x2="427.21" y2="87.18"/><line class="cls-107" x1="172.47" y1="101.17" x2="427.21" y2="101.17"/><line class="cls-106" x1="172.47" y1="115.17" x2="427.21" y2="115.17"/><line class="cls-107" x1="172.47" y1="129.17" x2="427.21" y2="129.17"/><line class="cls-106" x1="172.47" y1="143.16" x2="427.21" y2="143.16"/><line class="cls-107" x1="172.47" y1="157.16" x2="427.21" y2="157.16"/><line class="cls-106" x1="172.47" y1="171.16" x2="427.21" y2="171.16"/><line class="cls-108" x1="376.36" y1="86.24" x2="376.36" y2="172.09"/><text class="cls-109" transform="translate(373.18 85.31)">TSS</text><path class="cls-110" d="M172.47,171.07c9.33-.14,18.66-.38,28-.94a211,211,0,0,0,28-3.64,125.42,125.42,0,0,0,26.59-8.4,118.57,118.57,0,0,0,23.33-14c7.47-5.6,14-12.13,20.53-18.66,6.06-6.54,11.2-12.6,16.33-18.2,4.2-4.67,7.93-8.87,11.66-11.66a27.11,27.11,0,0,1,7.47-4.67,11.93,11.93,0,0,1,7,0c2.33.93,4.66,2.8,7,6.06a75.57,75.57,0,0,1,7,12.6c2.34,5.13,4.67,11.2,7,17.73s4.2,13.07,6.53,19.13,4.2,11.2,6.07,15.86c1.86,3.74,3.26,7,4.66,8.4l47.59.47H172.47Z"/><path class="cls-111" d="M172.47,171.07c9.33-.14,18.66-.38,28-.94a211,211,0,0,0,28-3.64,125.42,125.42,0,0,0,26.59-8.4,118.57,118.57,0,0,0,23.33-14c7.47-5.6,14-12.13,20.53-18.66,6.06-6.54,11.2-12.6,16.33-18.2,4.2-4.67,7.93-8.87,11.66-11.66a27.11,27.11,0,0,1,7.47-4.67,11.93,11.93,0,0,1,7,0c2.33.93,4.66,2.8,7,6.06a75.57,75.57,0,0,1,7,12.6c2.34,5.13,4.67,11.2,7,17.73s4.2,13.07,6.53,19.13,4.2,11.2,6.07,15.86c1.86,3.74,3.26,7,4.66,8.4"/><line class="cls-112" x1="171.54" y1="86.24" x2="171.54" y2="172.09"/><line class="cls-112" x1="171.54" y1="171.16" x2="428.15" y2="171.16"/><text class="cls-113" transform="translate(165.79 172.56)">0.0</text><line class="cls-48" x1="170.6" y1="171.16" x2="172.47" y2="171.16"/><text class="cls-113" transform="translate(165.79 158.56)">0.5</text><line class="cls-48" x1="170.6" y1="157.16" x2="172.47" y2="157.16"/><text class="cls-113" transform="translate(165.79 144.56)">1.0</text><line class="cls-48" x1="170.6" y1="143.16" x2="172.47" y2="143.16"/><text class="cls-113" transform="translate(165.79 130.57)">1.5</text><line class="cls-48" x1="170.6" y1="129.17" x2="172.47" y2="129.17"/><text class="cls-113" transform="translate(165.79 116.57)">2.0</text><line class="cls-48" x1="170.6" y1="115.17" x2="172.47" y2="115.17"/><text class="cls-113" transform="translate(165.79 102.57)">2.5</text><line class="cls-48" x1="170.6" y1="101.17" x2="172.47" y2="101.17"/><text class="cls-113" transform="translate(165.79 88.58)">3.0</text><line class="cls-48" x1="170.6" y1="87.18" x2="172.47" y2="87.18"/><text class="cls-114" transform="translate(162.97 154.6) rotate(-90)">CASPEX signal (<tspan class="cls-115" x="31.29" y="0">w</tspan><tspan x="34.76" y="0">eigh</tspan><tspan class="cls-116" x="43.47" y="0">t</tspan><tspan x="45.04" y="0">ed)</tspan></text><text class="cls-113" transform="translate(168.12 176.29)">−2000</text><line class="cls-48" x1="172.47" y1="171.16" x2="172.47" y2="172.56"/><text class="cls-113" transform="translate(219.45 176.29)">−1500</text><line class="cls-48" x1="223.79" y1="171.16" x2="223.79" y2="172.56"/><text class="cls-113" transform="translate(270.3 176.29)">−1000</text><line class="cls-48" x1="274.65" y1="171.16" x2="274.65" y2="172.56"/><text class="cls-113" transform="translate(322.03 176.29)">−500</text><line class="cls-48" x1="325.5" y1="171.16" x2="325.5" y2="172.56"/><text class="cls-113" transform="translate(375.49 176.29)">0</text><line class="cls-48" x1="376.36" y1="171.16" x2="376.36" y2="172.56"/><text class="cls-113" transform="translate(420.48 176.29)">+500</text><text class="cls-114" transform="translate(278.43 182.36)"><tspan class="cls-117">P</tspan><tspan class="cls-118" x="2.64" y="0">osition </tspan><tspan class="cls-119" x="17.61" y="0">r</tspan><tspan x="19.25" y="0">el</tspan><tspan class="cls-120" x="22.91" y="0">a</tspan><tspan class="cls-118" x="25.29" y="0">ti</tspan><tspan class="cls-115" x="28.13" y="0">v</tspan><tspan x="30.38" y="0">e </tspan><tspan class="cls-120" x="33.77" y="0">t</tspan><tspan class="cls-118" x="35.34" y="0">o </tspan><tspan class="cls-121" x="38.95" y="0">T</tspan><tspan class="cls-120" x="41.37" y="0">S</tspan><tspan x="43.9" y="0">S (bp)</tspan></text><line class="cls-112" x1="213.06" y1="167.56" x2="213.06" y2="171.16"/><line class="cls-112" x1="284.91" y1="143.63" x2="284.91" y2="171.16"/><line class="cls-112" x1="330.17" y1="122.17" x2="330.17" y2="171.16"/><line class="cls-112" x1="355.83" y1="131.76" x2="355.83" y2="171.16"/><line class="cls-112" x1="382.42" y1="150.65" x2="382.42" y2="171.16"/><line class="cls-112" x1="402.95" y1="161.08" x2="402.95" y2="171.16"/><line class="cls-112" x1="416.48" y1="166.12" x2="416.48" y2="171.16"/><circle class="cls-93" cx="213.06" cy="166.33" r="3.03"/><circle class="cls-93" cx="284.91" cy="143.63" r="3.03"/><circle class="cls-93" cx="330.17" cy="122.17" r="3.03"/><circle class="cls-93" cx="355.83" cy="130.84" r="3.03"/><circle class="cls-93" cx="382.42" cy="149.36" r="3.03"/><circle class="cls-93" cx="402.95" cy="163.06" r="3.03"/><circle class="cls-93" cx="416.48" cy="165.55" r="3.03"/><text class="cls-122" transform="translate(211.08 162.74)">R7</text><text class="cls-122" transform="translate(289.11 142.7)">R6</text><text class="cls-122" transform="translate(328.54 118.29)">R5</text><text class="cls-122" transform="translate(350.65 127.26)">R4</text><text class="cls-122" transform="translate(379.98 145.29)">R3</text><text class="cls-122" transform="translate(400.72 159.42)">R2</text><text class="cls-122" transform="translate(413.81 161.08)">R1</text><path class="cls-123" d="M173.87,191.49H425.81c.78,0,1.4.93,1.4,2.07V206c0,1.14-.62,2.07-1.4,2.07H173.87c-.77,0-1.4-.93-1.4-2.07V193.56C172.47,192.42,173.1,191.49,173.87,191.49Z"/><rect class="cls-124" x="207.93" y="191.67" width="0.65" height="3.27"/><rect class="cls-124" x="216.33" y="191.67" width="0.65" height="3.27"/><rect class="cls-124" x="233.12" y="191.67" width="0.65" height="3.27"/><rect class="cls-124" x="275.11" y="191.67" width="0.65" height="3.27"/><rect class="cls-124" x="317.1" y="191.67" width="0.65" height="3.27"/><rect class="cls-124" x="325.5" y="191.67" width="0.65" height="3.27"/><rect class="cls-124" x="334.11" y="191.67" width="0.65" height="3.27"/><rect class="cls-124" x="423.08" y="191.67" width="0.65" height="3.27"/><rect class="cls-124" x="355.98" y="191.67" width="0.65" height="3.27"/><rect class="cls-124" x="367.49" y="191.67" width="0.65" height="3.27"/><circle class="cls-125" cx="317.43" cy="201.55" r="5.13"/><circle class="cls-125" cx="275.44" cy="201.55" r="5.13"/><circle class="cls-125" cx="334.43" cy="200.61" r="4.19"/><rect class="cls-124" x="254.12" y="191.67" width="0.65" height="3.27"/><circle class="cls-125" cx="254.45" cy="198.03" r="1.61"/><circle class="cls-125" cx="356.31" cy="200.34" r="3.92"/><circle class="cls-125" cx="367.82" cy="199.66" r="3.24"/><circle class="cls-125" cx="221.93" cy="212.61" r="3.01"/><rect class="cls-124" x="175.41" y="210.98" width="0.65" height="3.27"/><text class="cls-126" transform="translate(178.47 213.49)">TF binding m<tspan class="cls-127" x="17.82" y="0">o</tspan><tspan x="19.54" y="0">tif</tspan></text><text class="cls-126" transform="translate(226.52 213.49)">P<tspan class="cls-128" x="1.85" y="0">r</tspan><tspan x="2.95" y="0">edi</tspan><tspan class="cls-128" x="7.19" y="0">c</tspan><tspan class="cls-129" x="8.64" y="0">t</tspan><tspan x="9.7" y="0">ed binding </tspan><tspan class="cls-130" x="24.88" y="0">e</tspan><tspan class="cls-131" x="26.52" y="0">v</tspan><tspan class="cls-132" x="28.03" y="0">ent</tspan></text><circle class="cls-133" cx="175.74" cy="187.62" r="2.33"/><text class="cls-126" transform="translate(178.47 189.02)">sgRNA d<tspan class="cls-134" x="11.23" y="0">a</tspan><tspan class="cls-135" x="12.83" y="0">t</tspan><tspan x="13.86" y="0">a point log</tspan><tspan class="cls-128" x="28.34" y="0">F</tspan><tspan class="cls-132" x="29.92" y="0">C</tspan></text><rect class="cls-136" x="218.19" y="185.29" width="7.47" height="4.2"/><text class="cls-126" transform="translate(226.52 189.02)">Gaussian en<tspan class="cls-137" x="16.47" y="0">v</tspan><tspan class="cls-132" x="17.98" y="0">elope (σ = 300 bp)</tspan></text><line class="cls-138" x1="272.4" y1="187.65" x2="278.88" y2="187.65"/><text class="cls-139" transform="translate(278.91 188.53)"><tspan class="cls-140">T</tspan><tspan class="cls-129" x="1.62" y="0">S</tspan><tspan x="3.32" y="0">S (0 bp)</tspan></text><path class="cls-123" d="M173.87,217.12H425.81c.78,0,1.4.4,1.4.89v5.32c0,.49-.62.89-1.4.89H173.87c-.77,0-1.4-.4-1.4-.89V218C172.47,217.52,173.1,217.12,173.87,217.12Z"/><text class="cls-141" transform="translate(354.6 221.76)">ChI<tspan class="cls-142" x="5.24" y="0">P</tspan><tspan class="cls-143" x="7.27" y="0">-</tspan><tspan class="cls-144" x="8.45" y="0">A</tspan><tspan x="10.47" y="0">tlas </tspan><tspan class="cls-145" x="17" y="0">re</tspan><tspan x="20.13" y="0">gions</tspan></text><line class="cls-146" x1="310.48" y1="219.25" x2="351.9" y2="219.25"/><line class="cls-146" x1="322.07" y1="221.76" x2="337.78" y2="221.76"/><line class="cls-146" x1="305.63" y1="221.76" x2="318.01" y2="221.76"/><line class="cls-105" x1="423.42" y1="87.18" x2="423.42" y2="171.16"/><text class="cls-147" transform="translate(447.65 149.97)">Protein name</text><text class="cls-147" transform="translate(457.4 159.93)">isTF = yes</text><text class="cls-148" transform="translate(440.19 23.05)">Input files</text><text class="cls-148" transform="translate(440.19 142.58)">Processing</text><text class="cls-148" transform="translate(515.91 142.58)">Output files</text><text class="cls-149" transform="translate(496.22 22.87)">gene name &amp; transcript id</text><text class="cls-149" transform="translate(444.89 76.29)">RegionX.txt</text><path class="cls-27" d="M466,32.71H570.14a3.25,3.25,0,0,1,3.3,3.2V66.3a3.25,3.25,0,0,1-3.3,3.2H466a3.25,3.25,0,0,1-3.3-3.2V35.91A3.25,3.25,0,0,1,466,32.71Z"/><text class="cls-150" transform="translate(466.5 37.19)">region<tspan class="cls-151" x="11.27" y="0">	</tspan><tspan x="16.65" y="0">sequence</tspan><tspan class="cls-152" x="34.24" y="0">	</tspan><tspan class="cls-153" x="41.62" y="0" xml:space="preserve">					</tspan><tspan x="83.25" y="0">data_file</tspan><tspan x="0" y="4.87">R1</tspan><tspan class="cls-154" x="5.19" y="4.87">	</tspan><tspan class="cls-155" x="8.32" y="4.87">	</tspan><tspan x="16.65" y="4.87">GCAGGTGACACCACACAGAA</tspan><tspan class="cls-156" x="74.12" y="4.87">	</tspan><tspan class="cls-155" x="74.92" y="4.87">	</tspan><tspan x="83.25" y="4.87">Region1.txt</tspan><tspan x="0" y="9.73">R2</tspan><tspan class="cls-154" x="5.19" y="9.73">	</tspan><tspan class="cls-155" x="8.32" y="9.73">	</tspan><tspan x="16.65" y="9.73">CCTTCCGCCAGGTGGGCCTC</tspan><tspan class="cls-157" x="74.56" y="9.73">	</tspan><tspan class="cls-155" x="74.92" y="9.73">	</tspan><tspan x="83.25" y="9.73">Region2.txt</tspan><tspan x="0" y="14.6">R3</tspan><tspan class="cls-154" x="5.19" y="14.6">	</tspan><tspan class="cls-155" x="8.32" y="14.6">	</tspan><tspan x="16.65" y="14.6">CCCTGCTGCGCAGCCACTAC</tspan><tspan class="cls-158" x="74.11" y="14.6">	</tspan><tspan class="cls-155" x="74.92" y="14.6">	</tspan><tspan x="83.25" y="14.6">Region3.txt</tspan><tspan x="0" y="19.47">R4</tspan><tspan class="cls-154" x="5.19" y="19.47">	</tspan><tspan class="cls-155" x="8.32" y="19.47">	</tspan><tspan x="16.65" y="19.47">CCTTCCAGCTCCGCCTCCTC</tspan><tspan class="cls-159" x="73.2" y="19.47">	</tspan><tspan class="cls-155" x="74.92" y="19.47">	</tspan><tspan x="83.25" y="19.47">Region4.txt</tspan><tspan x="0" y="24.34">R5</tspan><tspan class="cls-154" x="5.19" y="24.34">	</tspan><tspan class="cls-155" x="8.32" y="24.34">	</tspan><tspan x="16.65" y="24.34">CTCCGGATCAGGCCAGCGGC</tspan><tspan class="cls-160" x="75.24" y="24.34">	</tspan><tspan x="83.25" y="24.34">Region5.txt</tspan><tspan x="0" y="29.2">...</tspan><tspan class="cls-161" x="3.38" y="29.2">	</tspan><tspan class="cls-155" x="8.32" y="29.2">	</tspan><tspan x="16.65" y="29.2">...</tspan><tspan class="cls-161" x="20.03" y="29.2">	</tspan><tspan class="cls-155" x="24.97" y="29.2" xml:space="preserve">							</tspan><tspan x="83.25" y="29.2">...</tspan></text><text class="cls-162" transform="translate(463.36 235.6)">zone detection</text><text class="cls-147" transform="translate(457.4 221.76)">isEpi = yes</text><rect class="cls-163" x="448.36" y="223.03" width="52.59" height="9.36"/><rect class="cls-164" x="448.36" y="224.73" width="52.59" height="5.95"/><rect class="cls-165" x="458.49" y="224.94" width="32.32" height="5.53"/><rect class="cls-166" x="458.49" y="224.94" width="32.32" height="5.53"/><rect class="cls-167" x="466.6" y="224.94" width="16.11" height="5.53"/><rect class="cls-168" x="466.6" y="224.94" width="16.11" height="5.53"/><rect x="473.75" y="226.8" width="1.81" height="1.81" transform="translate(-22.14 401.9) rotate(-44.95)"/><rect class="cls-169" x="473.75" y="226.8" width="1.81" height="1.81" transform="translate(-22.14 401.9) rotate(-44.95)"/><line class="cls-170" x1="452.92" y1="150.89" x2="452.92" y2="220.95"/><line class="cls-170" x1="459.11" y1="160.62" x2="459.11" y2="197.34"/><text class="cls-162" transform="translate(463.36 183.98)">motif-anchored<tspan x="0" y="4.8">event prediction</tspan></text><text class="cls-147" transform="translate(463.36 170.29)">motif = yes</text><rect class="cls-171" x="487.26" y="166.61" width="10.1" height="12.85"/><line class="cls-172" x1="492.31" y1="169.37" x2="492.31" y2="166.61"/><path class="cls-173" d="M490.29,173a2,2,0,1,1,2,2,2,2,0,0,1-2-2"/><path class="cls-174" d="M490.29,173a2,2,0,1,1,2,2,2,2,0,0,1-2-2"/><line class="cls-170" x1="461.29" y1="169.48" x2="459.11" y2="169.48"/><path d="M462.8,169.48a7.27,7.27,0,0,1-2.13-1.19l.43,1.19-.43,1.19A7.27,7.27,0,0,1,462.8,169.48Z"/><text class="cls-162" transform="translate(463.36 207.59)">motif-free<tspan x="0" y="4.8">peak prediction</tspan></text><text class="cls-147" transform="translate(463.36 198.14)">motif = no</text><text class="cls-147" transform="translate(534.45 159.93)">isTF = yes</text><text class="cls-147" transform="translate(534.45 205.92)">isEpi = yes</text><text class="cls-147" transform="translate(537.35 167.21)">• sgRNA positions<tspan x="0" y="5.14">• region GC content</tspan><tspan x="0" y="10.28">• deconvolution plots</tspan><tspan x="0" y="15.42">• QC plots</tspan><tspan x="0" y="20.56">• predicted TF</tspan><tspan x="0" y="25.69" xml:space="preserve">  co-binding</tspan></text><text class="cls-147" transform="translate(537.35 213.7)">• binding zone prediction<tspan x="0" y="5.14">• epigenetic complexes</tspan><tspan x="0" y="10.28">• region histone landscape</tspan></text><rect class="cls-171" x="487.26" y="194.47" width="10.1" height="12.8"/><path class="cls-174" d="M490.33,200.87a2,2,0,1,1,2,2,2,2,0,0,1-2-2"/><path class="cls-175" d="M490.33,200.87a2,2,0,1,1,2,2,2,2,0,0,1-2-2"/><line class="cls-170" x1="461.29" y1="197.34" x2="459.11" y2="197.34"/><path d="M462.8,197.34a7.75,7.75,0,0,1-2.13-1.19l.43,1.19-.43,1.18A7.48,7.48,0,0,1,462.8,197.34Z"/><line class="cls-170" x1="455.1" y1="159.12" x2="452.92" y2="159.12"/><path d="M456.61,159.12a7.45,7.45,0,0,1-2.14-1.19l.43,1.19-.43,1.19A7.45,7.45,0,0,1,456.61,159.12Z"/><line class="cls-170" x1="455.1" y1="220.95" x2="452.92" y2="220.95"/><path d="M456.61,221a8,8,0,0,1-2.14-1.19l.43,1.19-.43,1.19A7.45,7.45,0,0,1,456.61,221Z"/><line class="cls-170" x1="529.4" y1="150.89" x2="529.4" y2="204.91"/><line class="cls-170" x1="531.58" y1="159.12" x2="529.4" y2="159.12"/><path d="M533.09,159.12a7.27,7.27,0,0,1-2.13-1.19l.43,1.19-.43,1.19A7.27,7.27,0,0,1,533.09,159.12Z"/><line class="cls-170" x1="531.58" y1="204.91" x2="529.4" y2="204.91"/><path d="M533.09,204.91a7.27,7.27,0,0,1-2.13-1.19l.43,1.19L531,206.1A7.27,7.27,0,0,1,533.09,204.91Z"/><circle class="cls-1" cx="489.39" cy="22" r="4.2"/><text class="cls-149" transform="translate(488.11 22.87)">1</text><circle class="cls-27" cx="457.11" cy="34.87" r="4.2"/><text class="cls-149" transform="translate(455.83 35.74)">2</text><circle class="cls-2" cx="439.23" cy="80.87" r="4.2"/><text class="cls-149" transform="translate(437.95 81.74)">3</text><text class="cls-149" transform="translate(464.02 31.01)">grnas.tsv</text></svg>